# xmcd
#
# Track frame offsets: 
#        150
#        17259
#        35536
#        69400
#        90550
#        111939
#        134618
#        156632
#        178611
#        199043
#        222543
#        237584
#        263216
#        274482
#        291946
#        312958
#
# Disc length: 4368 seconds
#
# Revision: 1
# Processed by: cddbd v1.4PL0 Copyright (c) Steve Scherf et al.
# Submitted via: ExactAudioCopy v0.95a3
#
DISCID=f9110e10
DTITLE=Era - Magic Spirit
DYEAR=1999
DGENRE=New Age
TTITLE0=Ameno
TTITLE1=Siocham Agus Ionannas
TTITLE2=Infinity Ocean
TTITLE3=Mother
TTITLE4=Celebration
TTITLE5=Flowers Of The Sea
TTITLE6=Sacral Nirvana (Radio Edit)
TTITLE7=Wankatakiya
TTITLE8=Enae Volare Mezzo
TTITLE9=Boddhisattya Land
TTITLE10=Cathar Rhythm
TTITLE11=Tara Shakti Mantra
TTITLE12=Angel
TTITLE13=Luohan Amitabhas Hands
TTITLE14=Journey To Shambala
TTITLE15=Era
EXTD=YEAR: 1999
EXTT0=
EXTT1=
EXTT2=
EXTT3=
EXTT4=
EXTT5=
EXTT6=
EXTT7=
EXTT8=
EXTT9=
EXTT10=
EXTT11=
EXTT12=
EXTT13=
EXTT14=
EXTT15=
PLAYORDER=
